<svg width="96" height="96" viewBox="0 0 96 96" fill="none" xmlns="http://www.w3.org/2000/svg">
<path d="M48 93C72.8528 93 93 72.8528 93 48C93 23.1472 72.8528 3 48 3C23.1472 3 3 23.1472 3 48C3 72.8528 23.1472 93 48 93Z" stroke="#FFF8F0" stroke-width="5.84615"/>
<path fill-rule="evenodd" clip-rule="evenodd" d="M24.3652 26.8004C22.5966 27.1699 21.2439 28.5995 20.9727 30.3858C20.7195 32.0542 21.4565 33.7235 22.9154 34.5714C23.9709 35.1849 25.037 35.7724 26.0558 36.3528C27.8472 37.3734 29.7851 38.4162 31.5765 39.4367L39.8243 44.2821C40.3875 44.5173 40.8043 44.7303 41.2211 44.9433C41.5093 45.0906 41.9162 45.399 42.285 45.5974C42.5624 45.7466 42.8761 45.6816 42.9452 45.3743C42.9857 45.1944 43.0594 44.9875 43.1467 44.8251C43.166 44.7893 43.1837 44.7546 43.2014 44.7199C43.3208 44.4863 43.417 44.2393 43.4856 43.986C43.5939 43.5861 43.7607 43.2412 43.9404 42.8108C44.6423 41.0757 43.9676 39.2379 42.2967 38.3943C39.1241 36.7926 34.2947 34.36 33.1969 33.6938L29.7159 31.9676C28.7581 31.373 29.8048 31.3822 30.581 31.2006L34.4175 30.5852C36.1162 30.2442 37.9612 29.9254 39.6599 29.5844C41.3586 29.2434 43.0351 29.0487 44.7339 28.7077L47.6768 28.1459C49.1067 27.8729 50.2942 26.8805 50.8168 25.5218L52.1383 22.0864C52.4252 21.3403 51.8066 20.7336 51.0534 21.0011C50.8206 21.0838 50.6976 21.1016 50.4522 21.1303C49.8604 21.1998 49.3417 21.3479 48.8383 21.3955L33.1906 24.8592C31.9531 25.1206 30.5693 25.3597 29.3097 25.7673L24.3652 26.8004Z" fill="#FFF8F0"/>
<path fill-rule="evenodd" clip-rule="evenodd" d="M54.7281 50.5888C54.2282 51.7792 54.6139 53.176 55.7986 53.6892C57.052 54.448 58.3905 55.0695 59.6944 55.738C62.3534 57.1014 64.9719 58.5939 67.512 59.977L68.3844 60.4614C69.0592 60.8361 69.2168 61.3186 68.4631 61.4845L50.977 64.48C49.6548 64.7065 48.8239 64.9103 48.3127 66.1505C47.2956 68.618 48.7426 71.3407 51.3523 70.7819C52.6501 70.504 53.7361 70.2634 53.9704 70.191C56.598 69.7252 59.2498 69.1134 61.7314 68.6235C64.8454 67.9381 68.2515 67.301 71.5116 66.6397C72.6064 66.3706 74.3095 66.052 75.4042 65.7829C76.6208 65.5321 77.5572 64.558 77.7598 63.3325L77.895 62.5149C78.1784 60.8007 77.3792 59.0885 75.8832 58.2049L67.4303 53.2118C65.5064 52.1436 63.7286 51.0994 61.9507 50.0553C61.0009 49.4482 60.0269 48.987 59.077 48.3799C57.6359 47.6193 55.7454 48.1665 55.1145 49.6689L54.7281 50.5888Z" fill="#FFF8F0"/>
<path fill-rule="evenodd" clip-rule="evenodd" d="M35.2018 66.735C34.3283 68.2695 35.0309 69.9149 36.7315 70.3901L37.4375 70.5874C38.3505 70.8425 39.2225 70.4831 39.7533 69.6976L41.9863 65.5569C43.7747 61.9069 46.1104 57.9487 48.0415 54.3384C50.0123 50.5857 52.1258 46.8727 54.0966 43.12C55.0422 41.3861 56.2101 39.407 57.1557 37.6732C58.1411 35.7968 59.1265 33.9204 60.2545 32.0839C60.4221 31.754 61.1262 30.4291 61.8052 29.1472C62.5905 27.6647 61.901 26.0887 60.2853 25.6372C58.9791 25.2722 57.6097 25.8292 56.9665 27.0233C56.8311 27.2745 56.6878 27.5364 56.5291 27.8152C55.9651 28.7334 55.5437 29.6916 55.0195 30.4673C54.4555 31.3855 54.0341 32.3437 53.4701 33.2619C53.0486 34.22 52.4846 35.1383 51.9206 36.0566C51.3566 36.9749 50.9352 37.933 50.3712 38.8513C49.9498 39.8094 49.3858 40.7276 48.9643 41.6858C48.4003 42.604 47.9789 43.5621 47.4149 44.4804L35.2018 66.735Z" fill="#FFF8F0"/>
</svg>
