<svg width="94" height="94" viewBox="0 0 94 94" fill="none" xmlns="http://www.w3.org/2000/svg">
<path d="M47.0553 91.1106C71.3864 91.1106 91.1106 71.3864 91.1106 47.0553C91.1106 22.7242 71.3864 3 47.0553 3C22.7242 3 3 22.7242 3 47.0553C3 71.3864 22.7242 91.1106 47.0553 91.1106Z" stroke="#114D57" stroke-width="5.72343"/>
<path fill-rule="evenodd" clip-rule="evenodd" d="M21.037 26.9024L20.1888 32.4902C21.9209 33.6326 23.818 34.6535 25.5719 35.6526C27.3257 36.6518 29.2228 37.6726 30.9767 38.6718L39.0513 43.4155C39.6027 43.6457 40.0108 43.8543 40.4188 44.0628C40.8269 44.2713 41.4781 44.8099 41.9079 44.8752C42.0729 44.7536 42.1164 44.4671 42.1599 44.1805C42.3467 43.9157 42.3685 43.7724 42.5552 43.5076C42.6422 42.9345 42.8508 42.5264 43.081 41.9751L44.2542 39.075C43.9894 38.8882 34.1737 34.0268 32.5631 33.0494L29.1552 31.3595C28.2175 30.7774 29.2422 30.7864 30.002 30.6086L33.758 30.0061C35.421 29.6722 37.2274 29.3601 38.8904 29.0263C40.5535 28.6924 42.1948 28.5018 43.8578 28.168L48.9902 27.1882L51.6538 20.2635C51.3673 20.22 49.9908 20.5974 49.8257 20.7189C49.0876 20.7535 48.471 20.953 47.8761 21.0093L32.5569 24.4003C31.3454 24.6562 29.9906 24.8902 28.7574 25.2893L21.037 26.9024Z" fill="#114D57"/>
<path fill-rule="evenodd" clip-rule="evenodd" d="M52.8067 51.5793C53.3314 51.9598 54.142 52.3876 54.6902 52.6251C55.3578 53.0293 56.0491 53.2904 56.5737 53.671C59.8397 55.2392 63.0584 57.0933 66.1578 58.7809L68.0413 59.8267C68.137 60.1363 67.851 60.089 67.0889 60.2568L47.8905 63.5455C47.8905 63.5455 45.2067 70.0055 45.1358 70.4344C45.5884 70.3623 52.2813 68.9719 52.9004 68.7805C55.4729 68.3245 58.069 67.7255 60.4985 67.2459C63.5472 66.5748 66.8818 65.9511 70.0734 65.3037C71.1452 65.0403 72.8125 64.7284 73.8843 64.4649L75.8612 64.0574L76.7831 58.4812L66.0778 52.1577C64.1943 51.1119 62.4538 50.0897 60.7132 49.0675C59.7833 48.4731 58.8298 48.0216 57.8998 47.4272C57.4945 47.2133 55.4917 46.0009 55.2294 45.8106L52.8067 51.5793Z" fill="#114D57"/>
<path fill-rule="evenodd" clip-rule="evenodd" d="M33.0088 68.1329L38.173 69.576C38.3906 69.3359 38.7251 68.677 38.9817 68.2973L41.1678 64.2436C42.9187 60.6702 45.2054 56.795 47.0959 53.2606C49.0254 49.5866 51.0944 45.9516 53.0239 42.2776C53.9497 40.5802 55.093 38.6426 56.0188 36.9452C56.9835 35.1082 57.9483 33.2712 59.0526 31.4732C59.3872 30.8144 61.9078 26.1018 61.9468 25.9622L56.9222 24.5582C56.3701 25.4571 55.9965 26.2556 55.4053 27.2941C54.8532 28.1931 54.4406 29.1311 53.9274 29.8906C53.3753 30.7896 52.9627 31.7276 52.4105 32.6266C51.9979 33.5646 51.4458 34.4636 50.8936 35.3626C50.3414 36.2616 49.9289 37.1996 49.3767 38.0986C48.9641 39.0366 48.4119 39.9356 47.9994 40.8736C47.4472 41.7725 47.0346 42.7105 46.4824 43.6095L34.5257 65.3969C34.2302 65.9162 33.0868 67.8538 33.0088 68.1329Z" fill="#114D57"/>
</svg>
