<svg width="94" height="94" viewBox="0 0 94 94" fill="none" xmlns="http://www.w3.org/2000/svg">
<path d="M47.0553 91.1106C71.3864 91.1106 91.1106 71.3864 91.1106 47.0553C91.1106 22.7242 71.3864 3 47.0553 3C22.7242 3 3 22.7242 3 47.0553C3 71.3864 22.7242 91.1106 47.0553 91.1106Z" stroke="#406E8E" stroke-width="5.72343"/>
<path fill-rule="evenodd" clip-rule="evenodd" d="M23.9167 26.3007C22.1853 26.6624 20.861 28.0621 20.5955 29.8109C20.3475 31.4442 21.0691 33.0784 22.4974 33.9086C23.5308 34.5092 24.5745 35.0844 25.5719 35.6526C27.3257 36.6518 29.2228 37.6726 30.9767 38.6718L39.0513 43.4155C39.6027 43.6457 40.0108 43.8543 40.4188 44.0628C40.701 44.207 41.0993 44.5089 41.4604 44.7031C41.732 44.8492 42.0391 44.7856 42.1067 44.4847C42.1463 44.3086 42.2185 44.106 42.304 43.947C42.3229 43.912 42.3402 43.878 42.3576 43.8441C42.4745 43.6153 42.5686 43.3735 42.6358 43.1256C42.7418 42.734 42.9051 42.3964 43.081 41.9751C43.7682 40.2763 43.1077 38.4772 41.4719 37.6513C38.3659 36.0832 33.6378 33.7016 32.5631 33.0494L29.1552 31.3595C28.2175 30.7774 29.2422 30.7864 30.002 30.6086L33.758 30.0061C35.421 29.6722 37.2274 29.3601 38.8904 29.0263C40.5535 28.6924 42.1948 28.5018 43.8578 28.168L46.7389 27.618C48.1389 27.3507 49.3014 26.3792 49.8131 25.049L51.1068 21.6857C51.3877 20.9553 50.7821 20.3613 50.0447 20.6232C49.8168 20.7042 49.6963 20.7215 49.4561 20.7497C48.8767 20.8177 48.369 20.9627 47.8761 21.0093L32.5569 24.4003C31.3454 24.6562 29.9906 24.8902 28.7574 25.2893L23.9167 26.3007Z" fill="#406E8E"/>
<path fill-rule="evenodd" clip-rule="evenodd" d="M53.6423 49.5898C53.1529 50.7551 53.5304 52.1226 54.6902 52.6251C55.9174 53.368 57.2278 53.9764 58.5042 54.6309C61.1074 55.9656 63.671 57.4269 66.1578 58.7809L67.0118 59.2551C67.6725 59.6219 67.8268 60.0943 67.0889 60.2568L49.9698 63.1893C48.6754 63.4111 47.862 63.6106 47.3615 64.8248C46.3658 67.2404 47.7824 69.906 50.3373 69.359C51.6079 69.0869 52.671 68.8514 52.9004 68.7805C55.4729 68.3245 58.069 67.7255 60.4985 67.2459C63.5472 66.5748 66.8818 65.9511 70.0734 65.3037C71.1452 65.0403 72.8125 64.7284 73.8843 64.4649C75.0753 64.2194 75.9921 63.2657 76.1905 62.0659L76.3228 61.2655C76.6003 59.5873 75.8179 57.9111 74.3533 57.0459L66.0778 52.1577C64.1943 51.1119 62.4538 50.0897 60.7132 49.0675C59.7833 48.4731 58.8298 48.0216 57.8998 47.4272C56.4889 46.6826 54.6382 47.2183 54.0205 48.6892L53.6423 49.5898Z" fill="#406E8E"/>
<path fill-rule="evenodd" clip-rule="evenodd" d="M34.5257 65.3969C33.6706 66.8992 34.3585 68.5101 36.0233 68.9753L36.7145 69.1684C37.6083 69.4182 38.4621 69.0663 38.9817 68.2973L41.1678 64.2436C42.9187 60.6702 45.2054 56.795 47.0959 53.2606C49.0254 49.5866 51.0944 45.9516 53.0239 42.2776C53.9497 40.5802 55.093 38.6426 56.0188 36.9452C56.9835 35.1082 57.9483 33.2712 59.0526 31.4732C59.2166 31.1503 59.9059 29.8532 60.5707 28.5982C61.3395 27.1469 60.6645 25.6039 59.0827 25.1619C57.8039 24.8045 56.4633 25.3499 55.8335 26.5189C55.701 26.7648 55.5607 27.0212 55.4053 27.2941C54.8532 28.1931 54.4406 29.1311 53.9274 29.8906C53.3753 30.7896 52.9627 31.7276 52.4105 32.6266C51.9979 33.5646 51.4458 34.4636 50.8936 35.3626C50.3414 36.2616 49.9289 37.1996 49.3767 38.0986C48.9641 39.0366 48.4119 39.9356 47.9994 40.8735C47.4472 41.7725 47.0346 42.7105 46.4824 43.6095L34.5257 65.3969Z" fill="#406E8E"/>
</svg>
